<?xml version="1.0" standalone="no"?>
<!DOCTYPE svg PUBLIC "-//W3C//DTD SVG 20010904//EN"
 "http://www.w3.org/TR/2001/REC-SVG-20010904/DTD/svg10.dtd">
<svg version="1.0" xmlns="http://www.w3.org/2000/svg"
 width="1000.000000pt" height="1000.000000pt" viewBox="0 0 1000.000000 1000.000000"
 preserveAspectRatio="xMidYMid meet">

<g transform="translate(0.000000,1000.000000) scale(0.100000,-0.100000)"
fill="#000000" stroke="none">
<path d="M2190 5842 c-31 -17 -42 -36 -105 -183 l-71 -164 -249 -5 c-173 -4
-259 -9 -280 -18 -41 -18 -73 -50 -96 -95 -19 -36 -19 -61 -17 -600 l3 -563
28 -42 c15 -23 46 -52 70 -64 41 -22 51 -23 357 -26 l315 -3 -59 36 c-175 107
-300 271 -352 465 -22 79 -25 292 -5 360 45 158 115 274 226 378 222 208 553
259 820 128 50 -25 116 -68 148 -96 31 -28 57 -50 57 -48 0 2 -48 118 -108
258 -94 224 -111 257 -141 277 -33 22 -41 23 -270 23 -210 0 -240 -2 -271 -18z"/>
<path d="M3248 5768 c-20 -129 -30 -802 -19 -1178 7 -212 16 -401 20 -420 16
-71 26 286 25 855 -2 567 -12 843 -26 743z"/>
<path d="M1640 5680 c-24 -24 -26 -57 -4 -88 14 -21 22 -22 148 -22 89 0 136
4 144 12 19 19 15 82 -6 101 -15 14 -41 17 -140 17 -109 0 -124 -2 -142 -20z"/>
<path d="M4170 5641 c-321 -69 -640 -305 -640 -473 0 -59 10 -86 51 -133 48
-55 135 -93 317 -139 l163 -42 -67 -59 c-79 -70 -114 -133 -93 -171 7 -13 20
-26 29 -29 28 -9 142 32 206 73 100 66 125 106 98 157 -15 28 -14 31 8 49 41
33 186 98 233 103 l44 6 -10 -34 c-19 -67 -39 -216 -39 -296 0 -73 2 -83 22
-97 12 -9 25 -16 29 -16 3 0 9 44 13 98 13 182 62 376 155 601 l46 113 165 -5
c133 -4 177 -9 227 -26 93 -31 113 -27 76 18 -33 38 -163 72 -303 78 l-127 6
28 63 c16 35 29 70 29 79 0 15 -47 52 -55 43 -3 -3 -25 -46 -49 -96 l-44 -90
-79 -6 c-43 -4 -92 -8 -109 -10 l-31 -4 0 56 c0 106 -65 184 -163 195 -27 4
-80 -2 -130 -12z m209 -77 c26 -33 27 -90 4 -138 -15 -33 -20 -36 -90 -47 -47
-8 -73 -16 -73 -25 0 -19 51 -55 69 -49 12 3 20 -4 28 -25 16 -43 46 -39 79
10 15 22 30 40 34 40 4 0 54 5 110 10 56 6 104 9 106 7 2 -2 -11 -39 -30 -83
-18 -43 -43 -109 -55 -146 l-23 -68 -52 0 c-71 0 -156 -31 -267 -96 l-94 -55
-155 37 c-297 71 -361 101 -375 177 -11 56 23 114 119 204 131 123 300 212
480 253 120 27 160 26 185 -6z m-201 -753 c-10 -27 -162 -130 -174 -118 -7 6
149 126 164 127 8 0 12 -4 10 -9z"/>
<path d="M5601 5464 c-64 -121 -187 -319 -239 -383 -16 -20 -22 -22 -40 -12
-31 16 -83 13 -113 -7 -15 -9 -47 -40 -72 -67 -40 -45 -147 -117 -147 -100 0
4 8 36 17 71 18 67 15 86 -19 108 -13 8 -30 -3 -83 -52 -80 -75 -163 -142
-176 -142 -6 0 4 27 22 60 31 58 31 61 14 80 -26 28 -47 25 -72 -13 -68 -101
-54 -207 27 -207 39 0 76 19 145 75 l55 45 0 -29 c0 -36 35 -81 63 -81 12 0
37 9 56 21 18 11 34 19 36 17 1 -2 8 -13 14 -25 6 -13 21 -23 32 -23 35 0 126
51 183 101 30 27 57 49 59 49 3 0 -8 -37 -24 -81 -16 -45 -27 -90 -24 -100 6
-16 51 -38 59 -28 1 2 19 51 41 109 44 121 157 374 250 560 36 71 65 139 65
150 0 18 -26 40 -48 40 -6 0 -42 -61 -81 -136z m-350 -505 c-30 -27 -56 -47
-59 -44 -8 8 41 67 71 86 52 31 45 10 -12 -42z"/>
<path d="M6915 5581 c-100 -46 -212 -167 -222 -240 -5 -33 -1 -44 20 -65 38
-38 60 -35 52 7 -12 62 85 173 200 228 33 16 66 29 72 29 22 0 26 -49 9 -114
-14 -59 -36 -115 -138 -356 -46 -108 -53 -167 -24 -199 11 -12 31 -21 47 -21
35 0 122 66 217 164 80 82 82 76 20 -48 -73 -146 -142 -238 -206 -274 -46 -26
-57 -18 -41 27 9 27 8 35 -6 51 -31 34 -53 26 -60 -22 -12 -78 30 -138 95
-138 51 0 114 45 173 122 87 113 226 429 258 587 13 62 13 64 -10 82 -13 10
-27 19 -31 19 -5 0 -27 -34 -49 -76 -71 -131 -224 -314 -324 -386 l-27 -20 21
54 c11 29 42 103 69 164 88 202 109 307 75 378 -30 64 -111 84 -190 47z"/>
<path d="M2375 5420 c-237 -33 -454 -207 -531 -428 -109 -315 26 -661 315
-805 120 -60 216 -81 340 -74 229 13 436 145 540 346 59 116 75 179 75 306 1
192 -58 332 -198 470 -60 59 -101 90 -156 117 -124 60 -261 85 -385 68z m240
-60 c211 -54 384 -229 440 -445 21 -78 20 -223 0 -300 -96 -361 -487 -557
-828 -415 -81 33 -183 110 -240 179 -54 66 -114 194 -128 275 -27 159 7 322
95 455 59 88 129 150 229 202 134 70 284 87 432 49z"/>
<path d="M2139 5183 c-13 -16 -12 -17 4 -4 16 13 21 21 13 21 -2 0 -10 -8 -17
-17z"/>
<path d="M2084 5138 l-19 -23 23 19 c21 18 27 26 19 26 -2 0 -12 -10 -23 -22z"/>
<path d="M2039 5083 c-13 -16 -12 -17 4 -4 9 7 17 15 17 17 0 8 -8 3 -21 -13z"/>
<path d="M2956 4890 c11 -136 -39 -290 -128 -393 -53 -62 -146 -127 -233 -163
-64 -26 -80 -28 -195 -28 -92 0 -137 5 -169 17 -69 27 -61 10 10 -22 205 -93
436 -54 589 99 125 125 180 293 151 466 -17 101 -32 115 -25 24z"/>
<path d="M5873 5068 c-68 -61 -221 -168 -242 -168 -18 0 -13 20 18 75 31 54
29 75 -9 95 -17 9 -24 5 -50 -36 -16 -26 -34 -71 -40 -101 -10 -48 -10 -57 6
-74 22 -25 77 -34 122 -21 21 6 71 34 112 61 41 28 76 48 78 46 2 -1 -11 -38
-29 -80 -25 -61 -50 -98 -118 -174 -89 -98 -138 -164 -159 -214 -31 -73 1
-188 45 -161 25 15 147 201 206 312 39 75 62 104 123 159 140 126 339 253 397
253 27 0 6 -36 -56 -92 l-51 -47 23 -25 c14 -15 31 -26 38 -26 8 0 -2 -21 -26
-53 -65 -85 -95 -161 -99 -247 -3 -65 -1 -79 18 -103 17 -22 29 -27 54 -25 26
3 39 14 78 73 65 96 99 184 105 273 l6 73 59 41 c33 22 89 53 125 70 66 31 84
51 64 71 -14 14 -50 2 -190 -64 -57 -27 -106 -47 -108 -45 -2 2 7 21 22 41 60
89 4 170 -103 150 -45 -8 -129 -49 -156 -76 -17 -16 -182 -119 -191 -119 -1 0
10 39 26 86 21 62 26 90 19 103 -8 16 -31 31 -46 31 -2 0 -34 -28 -71 -62z
m457 -364 c-11 -32 -37 -86 -57 -119 -43 -72 -42 -70 -48 -63 -12 12 38 139
76 192 22 31 43 55 45 53 2 -2 -5 -30 -16 -63z"/>
<path d="M7455 5062 c-78 -48 -151 -204 -115 -247 26 -32 65 -15 200 89 l45
35 0 -41 c0 -33 6 -45 33 -69 20 -18 44 -29 61 -29 28 0 111 39 142 66 22 20
31 17 24 -6 -7 -24 18 -70 38 -70 7 0 29 16 48 36 31 33 150 124 162 124 2 0
-2 -18 -9 -41 -17 -48 -11 -74 21 -95 35 -23 68 -12 176 56 51 32 94 58 96 57
1 -2 -3 -20 -9 -40 -15 -48 1 -87 35 -87 24 0 86 36 152 89 77 62 48 -17 -46
-124 -33 -39 -79 -107 -102 -154 -40 -80 -42 -89 -42 -172 0 -73 3 -92 21
-116 12 -15 28 -29 36 -31 17 -3 71 113 165 353 30 77 64 151 76 163 28 30
167 123 230 153 48 24 59 46 33 69 -12 9 -31 4 -98 -26 -46 -20 -92 -43 -103
-50 -28 -20 -36 -17 -25 10 7 19 4 30 -11 50 -11 14 -27 26 -36 26 -8 0 -26 9
-40 20 -39 30 -92 26 -142 -11 -35 -25 -283 -149 -298 -149 -3 0 9 26 26 57
34 61 38 82 19 101 -21 21 -64 13 -144 -28 -44 -21 -81 -35 -82 -29 -11 30
-72 55 -72 29 0 -25 -215 -160 -255 -160 -16 0 -14 23 6 78 16 41 10 71 -16
88 -13 8 -29 13 -34 10 -5 -4 -25 3 -43 14 -41 25 -84 25 -123 2z m95 -45 c0
-2 -21 -18 -47 -36 l-48 -33 37 36 c32 31 58 45 58 33z m1035 -5 c-27 -22 -84
-62 -91 -62 -12 0 20 33 51 52 30 18 58 25 40 10z"/>
<path d="M3630 4280 l0 -110 25 0 c21 0 25 5 25 30 0 27 3 30 33 30 72 0 120
53 98 107 -16 39 -48 53 -121 53 l-60 0 0 -110z m128 58 c28 -28 -1 -68 -49
-68 -27 0 -29 2 -29 40 0 39 1 40 33 40 18 0 38 -5 45 -12z"/>
<path d="M4040 4280 c0 -103 1 -110 20 -110 17 0 20 7 20 45 l0 45 55 0 55 0
0 -45 c0 -41 2 -45 25 -45 l25 0 0 110 c0 110 0 110 -24 110 -22 0 -25 -5 -28
-42 l-3 -43 -50 0 -50 0 -3 43 c-3 34 -7 42 -23 42 -18 0 -19 -8 -19 -110z"/>
<path d="M4498 4369 c-15 -11 -32 -35 -38 -54 -25 -77 31 -145 119 -145 36 0
49 6 77 34 37 37 45 82 22 131 -25 55 -127 74 -180 34z m124 -36 c27 -24 24
-87 -4 -107 -34 -24 -73 -20 -97 10 -12 15 -21 34 -21 44 0 10 9 29 21 44 24
31 72 35 101 9z"/>
<path d="M4890 4370 c0 -16 7 -20 35 -20 l35 0 0 -90 c0 -89 0 -90 25 -90 25
0 25 1 25 90 l0 90 35 0 c28 0 35 4 35 20 0 19 -7 20 -95 20 -88 0 -95 -1 -95
-20z"/>
<path d="M5310 4363 c-41 -37 -50 -94 -21 -141 24 -37 55 -52 113 -52 32 0 47
7 74 34 28 28 34 42 34 76 0 34 -6 48 -34 76 -30 30 -40 34 -85 34 -41 0 -56
-5 -81 -27z m130 -33 c65 -65 -30 -161 -97 -98 -46 43 -16 118 47 118 17 0 39
-9 50 -20z"/>
<path d="M5775 4378 c-51 -27 -70 -94 -44 -151 22 -49 100 -71 163 -47 23 8
26 15 26 55 0 38 -3 45 -19 45 -15 0 -21 -8 -23 -32 -2 -28 -8 -34 -31 -36
-46 -5 -77 22 -77 67 0 60 55 91 110 61 13 -7 21 -5 31 6 11 14 10 18 -6 30
-22 17 -102 18 -130 2z"/>
<path d="M6150 4280 l0 -110 25 0 c21 0 25 5 25 30 0 25 4 30 24 30 16 0 32
-11 46 -30 14 -20 30 -30 46 -30 l26 0 -22 36 -22 35 21 23 c21 22 26 51 15
81 -11 27 -60 45 -124 45 l-60 0 0 -110z m134 48 c17 -27 -5 -52 -48 -56 l-36
-3 0 41 0 41 36 -3 c22 -2 42 -10 48 -20z"/>
<path d="M6627 4383 c-3 -5 -25 -54 -50 -110 l-46 -103 25 0 c16 0 28 8 36 25
10 22 17 25 64 25 49 0 54 -2 60 -25 4 -18 13 -25 30 -25 13 0 24 4 24 9 0 5
-21 55 -47 110 -39 85 -50 101 -69 101 -13 0 -25 -3 -27 -7z m56 -125 c-6 -12
-63 -10 -63 2 0 5 8 26 17 46 l18 36 16 -39 c9 -21 14 -41 12 -45z"/>
<path d="M6980 4280 l0 -110 25 0 c21 0 25 5 25 30 0 27 3 30 29 30 63 0 110
33 111 77 1 57 -40 83 -130 83 l-60 0 0 -110z m128 58 c30 -30 1 -68 -52 -68
-24 0 -26 4 -26 40 0 39 1 40 33 40 18 0 38 -5 45 -12z"/>
<path d="M7390 4280 l0 -110 25 0 c23 0 25 4 25 45 l0 45 50 0 50 0 0 -45 c0
-41 2 -45 25 -45 l25 0 0 110 0 110 -25 0 c-23 0 -25 -4 -25 -45 l0 -45 -50 0
-50 0 0 45 c0 41 -2 45 -25 45 l-25 0 0 -110z"/>
<path d="M7835 4316 c31 -51 45 -84 45 -110 0 -29 4 -36 20 -36 16 0 20 7 20
36 0 26 14 59 45 110 44 73 44 74 20 74 -18 0 -31 -11 -51 -45 -14 -25 -29
-45 -32 -45 -4 0 -19 21 -34 45 -21 34 -33 45 -52 45 -26 0 -25 0 19 -74z"/>
</g>
</svg>
