<svg xmlns="http://www.w3.org/2000/svg" xmlns:xlink="http://www.w3.org/1999/xlink" width="500" zoomAndPan="magnify" viewBox="0 0 375 374.999991" height="500" preserveAspectRatio="xMidYMid meet" version="1.0"><defs><g/><clipPath id="5cdc846e7b"><path d="M 51.125 155.230469 L 112 155.230469 L 112 221.980469 L 51.125 221.980469 Z M 51.125 155.230469 " clip-rule="nonzero"/></clipPath><clipPath id="db0ad54241"><path d="M 120 155.230469 L 123 155.230469 L 123 221.980469 L 120 221.980469 Z M 120 155.230469 " clip-rule="nonzero"/></clipPath></defs><rect x="-37.5" width="450" fill="#ffffff" y="-37.499999" height="449.999989" fill-opacity="1"/><rect x="-37.5" width="450" fill="#ffffff" y="-37.499999" height="449.999989" fill-opacity="1"/><g fill="#9d2933" fill-opacity="1"><g transform="translate(134.956973, 218.584441)"><g><path d="M 4.578125 -8.3125 C 5.316406 -8.3125 5.957031 -8.1875 6.5 -7.9375 C 7.039062 -7.695312 7.457031 -7.347656 7.75 -6.890625 C 8.039062 -6.441406 8.1875 -5.910156 8.1875 -5.296875 C 8.1875 -4.679688 8.039062 -4.144531 7.75 -3.6875 C 7.457031 -3.238281 7.039062 -2.894531 6.5 -2.65625 C 5.957031 -2.414062 5.316406 -2.296875 4.578125 -2.296875 L 2.90625 -2.296875 L 2.90625 0 L 0.984375 0 L 0.984375 -8.3125 Z M 4.484375 -3.859375 C 5.054688 -3.859375 5.492188 -3.984375 5.796875 -4.234375 C 6.097656 -4.484375 6.25 -4.835938 6.25 -5.296875 C 6.25 -5.765625 6.097656 -6.125 5.796875 -6.375 C 5.492188 -6.625 5.054688 -6.75 4.484375 -6.75 L 2.90625 -6.75 L 2.90625 -3.859375 Z M 4.484375 -3.859375 "/></g></g></g><g fill="#9d2933" fill-opacity="1"><g transform="translate(150.28567, 218.584441)"><g><path d="M 8.609375 -8.3125 L 8.609375 0 L 6.6875 0 L 6.6875 -3.40625 L 2.90625 -3.40625 L 2.90625 0 L 0.984375 0 L 0.984375 -8.3125 L 2.90625 -8.3125 L 2.90625 -5.03125 L 6.6875 -5.03125 L 6.6875 -8.3125 Z M 8.609375 -8.3125 "/></g></g></g><g fill="#9d2933" fill-opacity="1"><g transform="translate(166.515505, 218.584441)"><g><path d="M 5.015625 0.140625 C 4.148438 0.140625 3.367188 -0.0390625 2.671875 -0.40625 C 1.984375 -0.78125 1.441406 -1.296875 1.046875 -1.953125 C 0.660156 -2.609375 0.46875 -3.34375 0.46875 -4.15625 C 0.46875 -4.96875 0.660156 -5.703125 1.046875 -6.359375 C 1.441406 -7.015625 1.984375 -7.523438 2.671875 -7.890625 C 3.367188 -8.265625 4.148438 -8.453125 5.015625 -8.453125 C 5.878906 -8.453125 6.65625 -8.265625 7.34375 -7.890625 C 8.03125 -7.523438 8.570312 -7.015625 8.96875 -6.359375 C 9.363281 -5.703125 9.5625 -4.96875 9.5625 -4.15625 C 9.5625 -3.34375 9.363281 -2.609375 8.96875 -1.953125 C 8.570312 -1.296875 8.03125 -0.78125 7.34375 -0.40625 C 6.65625 -0.0390625 5.878906 0.140625 5.015625 0.140625 Z M 5.015625 -1.5 C 5.503906 -1.5 5.945312 -1.609375 6.34375 -1.828125 C 6.738281 -2.054688 7.046875 -2.375 7.265625 -2.78125 C 7.492188 -3.1875 7.609375 -3.644531 7.609375 -4.15625 C 7.609375 -4.664062 7.492188 -5.125 7.265625 -5.53125 C 7.046875 -5.9375 6.738281 -6.25 6.34375 -6.46875 C 5.945312 -6.695312 5.503906 -6.8125 5.015625 -6.8125 C 4.523438 -6.8125 4.082031 -6.695312 3.6875 -6.46875 C 3.289062 -6.25 2.976562 -5.9375 2.75 -5.53125 C 2.519531 -5.125 2.40625 -4.664062 2.40625 -4.15625 C 2.40625 -3.644531 2.519531 -3.1875 2.75 -2.78125 C 2.976562 -2.375 3.289062 -2.054688 3.6875 -1.828125 C 4.082031 -1.609375 4.523438 -1.5 5.015625 -1.5 Z M 5.015625 -1.5 "/></g></g></g><g fill="#9d2933" fill-opacity="1"><g transform="translate(183.172199, 218.584441)"><g><path d="M 2.703125 -6.75 L 0.046875 -6.75 L 0.046875 -8.3125 L 7.296875 -8.3125 L 7.296875 -6.75 L 4.625 -6.75 L 4.625 0 L 2.703125 0 Z M 2.703125 -6.75 "/></g></g></g><g fill="#9d2933" fill-opacity="1"><g transform="translate(197.149186, 218.584441)"><g><path d="M 5.015625 0.140625 C 4.148438 0.140625 3.367188 -0.0390625 2.671875 -0.40625 C 1.984375 -0.78125 1.441406 -1.296875 1.046875 -1.953125 C 0.660156 -2.609375 0.46875 -3.34375 0.46875 -4.15625 C 0.46875 -4.96875 0.660156 -5.703125 1.046875 -6.359375 C 1.441406 -7.015625 1.984375 -7.523438 2.671875 -7.890625 C 3.367188 -8.265625 4.148438 -8.453125 5.015625 -8.453125 C 5.878906 -8.453125 6.65625 -8.265625 7.34375 -7.890625 C 8.03125 -7.523438 8.570312 -7.015625 8.96875 -6.359375 C 9.363281 -5.703125 9.5625 -4.96875 9.5625 -4.15625 C 9.5625 -3.34375 9.363281 -2.609375 8.96875 -1.953125 C 8.570312 -1.296875 8.03125 -0.78125 7.34375 -0.40625 C 6.65625 -0.0390625 5.878906 0.140625 5.015625 0.140625 Z M 5.015625 -1.5 C 5.503906 -1.5 5.945312 -1.609375 6.34375 -1.828125 C 6.738281 -2.054688 7.046875 -2.375 7.265625 -2.78125 C 7.492188 -3.1875 7.609375 -3.644531 7.609375 -4.15625 C 7.609375 -4.664062 7.492188 -5.125 7.265625 -5.53125 C 7.046875 -5.9375 6.738281 -6.25 6.34375 -6.46875 C 5.945312 -6.695312 5.503906 -6.8125 5.015625 -6.8125 C 4.523438 -6.8125 4.082031 -6.695312 3.6875 -6.46875 C 3.289062 -6.25 2.976562 -5.9375 2.75 -5.53125 C 2.519531 -5.125 2.40625 -4.664062 2.40625 -4.15625 C 2.40625 -3.644531 2.519531 -3.1875 2.75 -2.78125 C 2.976562 -2.375 3.289062 -2.054688 3.6875 -1.828125 C 4.082031 -1.609375 4.523438 -1.5 5.015625 -1.5 Z M 5.015625 -1.5 "/></g></g></g><g fill="#9d2933" fill-opacity="1"><g transform="translate(213.805877, 218.584441)"><g><path d="M 6.609375 -4.28125 L 8.359375 -4.28125 L 8.359375 -0.921875 C 7.910156 -0.578125 7.390625 -0.3125 6.796875 -0.125 C 6.203125 0.0507812 5.601562 0.140625 5 0.140625 C 4.132812 0.140625 3.359375 -0.0390625 2.671875 -0.40625 C 1.984375 -0.78125 1.441406 -1.289062 1.046875 -1.9375 C 0.660156 -2.59375 0.46875 -3.332031 0.46875 -4.15625 C 0.46875 -4.976562 0.660156 -5.710938 1.046875 -6.359375 C 1.441406 -7.015625 1.988281 -7.523438 2.6875 -7.890625 C 3.382812 -8.265625 4.164062 -8.453125 5.03125 -8.453125 C 5.757812 -8.453125 6.421875 -8.328125 7.015625 -8.078125 C 7.609375 -7.835938 8.109375 -7.484375 8.515625 -7.015625 L 7.28125 -5.875 C 6.6875 -6.5 5.96875 -6.8125 5.125 -6.8125 C 4.59375 -6.8125 4.117188 -6.703125 3.703125 -6.484375 C 3.296875 -6.265625 2.976562 -5.953125 2.75 -5.546875 C 2.519531 -5.140625 2.40625 -4.675781 2.40625 -4.15625 C 2.40625 -3.644531 2.519531 -3.1875 2.75 -2.78125 C 2.976562 -2.375 3.296875 -2.054688 3.703125 -1.828125 C 4.117188 -1.609375 4.585938 -1.5 5.109375 -1.5 C 5.660156 -1.5 6.160156 -1.617188 6.609375 -1.859375 Z M 6.609375 -4.28125 "/></g></g></g><g fill="#9d2933" fill-opacity="1"><g transform="translate(229.597005, 218.584441)"><g><path d="M 6.28125 0 L 4.671875 -2.3125 L 2.90625 -2.3125 L 2.90625 0 L 0.984375 0 L 0.984375 -8.3125 L 4.578125 -8.3125 C 5.316406 -8.3125 5.957031 -8.1875 6.5 -7.9375 C 7.039062 -7.695312 7.457031 -7.347656 7.75 -6.890625 C 8.039062 -6.441406 8.1875 -5.910156 8.1875 -5.296875 C 8.1875 -4.679688 8.035156 -4.148438 7.734375 -3.703125 C 7.441406 -3.253906 7.023438 -2.910156 6.484375 -2.671875 L 8.34375 0 Z M 6.25 -5.296875 C 6.25 -5.765625 6.097656 -6.125 5.796875 -6.375 C 5.492188 -6.625 5.054688 -6.75 4.484375 -6.75 L 2.90625 -6.75 L 2.90625 -3.84375 L 4.484375 -3.84375 C 5.054688 -3.84375 5.492188 -3.96875 5.796875 -4.21875 C 6.097656 -4.476562 6.25 -4.835938 6.25 -5.296875 Z M 6.25 -5.296875 "/></g></g></g><g fill="#9d2933" fill-opacity="1"><g transform="translate(244.961281, 218.584441)"><g><path d="M 6.453125 -1.78125 L 2.59375 -1.78125 L 1.859375 0 L -0.109375 0 L 3.59375 -8.3125 L 5.5 -8.3125 L 9.21875 0 L 7.203125 0 Z M 5.859375 -3.234375 L 4.53125 -6.421875 L 3.21875 -3.234375 Z M 5.859375 -3.234375 "/></g></g></g><g fill="#9d2933" fill-opacity="1"><g transform="translate(260.693121, 218.584441)"><g><path d="M 4.578125 -8.3125 C 5.316406 -8.3125 5.957031 -8.1875 6.5 -7.9375 C 7.039062 -7.695312 7.457031 -7.347656 7.75 -6.890625 C 8.039062 -6.441406 8.1875 -5.910156 8.1875 -5.296875 C 8.1875 -4.679688 8.039062 -4.144531 7.75 -3.6875 C 7.457031 -3.238281 7.039062 -2.894531 6.5 -2.65625 C 5.957031 -2.414062 5.316406 -2.296875 4.578125 -2.296875 L 2.90625 -2.296875 L 2.90625 0 L 0.984375 0 L 0.984375 -8.3125 Z M 4.484375 -3.859375 C 5.054688 -3.859375 5.492188 -3.984375 5.796875 -4.234375 C 6.097656 -4.484375 6.25 -4.835938 6.25 -5.296875 C 6.25 -5.765625 6.097656 -6.125 5.796875 -6.375 C 5.492188 -6.625 5.054688 -6.75 4.484375 -6.75 L 2.90625 -6.75 L 2.90625 -3.859375 Z M 4.484375 -3.859375 "/></g></g></g><g fill="#9d2933" fill-opacity="1"><g transform="translate(276.021816, 218.584441)"><g><path d="M 8.609375 -8.3125 L 8.609375 0 L 6.6875 0 L 6.6875 -3.40625 L 2.90625 -3.40625 L 2.90625 0 L 0.984375 0 L 0.984375 -8.3125 L 2.90625 -8.3125 L 2.90625 -5.03125 L 6.6875 -5.03125 L 6.6875 -8.3125 Z M 8.609375 -8.3125 "/></g></g></g><g fill="#9d2933" fill-opacity="1"><g transform="translate(292.25165, 218.584441)"><g><path d="M 4.96875 -2.9375 L 4.96875 0 L 3.046875 0 L 3.046875 -2.96875 L -0.171875 -8.3125 L 1.875 -8.3125 L 4.09375 -4.625 L 6.3125 -8.3125 L 8.203125 -8.3125 Z M 4.96875 -2.9375 "/></g></g></g><g fill="#9d2933" fill-opacity="1"><g transform="translate(130.78567, 192.568776)"><g><path d="M 40.765625 -5.851562 C 40.472656 -6.582031 39.742188 -7.121094 39.007812 -7.214844 C 34.230469 -7.800781 29.355469 -4.925781 25.503906 -2.4375 C 25.015625 -2.144531 24.527344 -1.851562 24.089844 -1.511719 C 22.625 -1.949219 21.113281 -2.195312 19.796875 -2.488281 C 16.578125 -3.316406 13.261719 -4 10.09375 -4.925781 C 8.046875 -5.511719 5.121094 -6.4375 4.242188 -8.582031 C 3.023438 -11.605469 5.753906 -14.628906 7.753906 -16.578125 C 12.191406 -20.871094 17.699219 -24.039062 23.648438 -25.84375 C 25.257812 -26.332031 26.867188 -26.722656 28.527344 -26.964844 C 29.988281 -27.207031 32.671875 -27.890625 33.597656 -26.332031 C 35.546875 -23.160156 32.671875 -19.261719 30.867188 -16.871094 C 30.085938 -15.847656 32.425781 -13.652344 33.109375 -14.578125 C 35.011719 -17.164062 37.105469 -20.039062 36.71875 -23.453125 C 36.425781 -26.039062 34.765625 -28.621094 32.183594 -29.5 C 29.257812 -30.523438 25.355469 -29.355469 22.480469 -28.574219 C 19.210938 -27.597656 16.042969 -26.28125 13.066406 -24.527344 C 10.191406 -22.867188 7.507812 -20.820312 5.121094 -18.480469 C 2.972656 -16.335938 0.976562 -13.554688 1.460938 -10.386719 C 2.535156 -4.195312 9.996094 -2.585938 15.019531 -1.367188 C 17.210938 -0.828125 19.40625 -0.292969 21.601562 0.242188 C 20.820312 0.828125 20.089844 1.414062 19.308594 2.046875 C 17.40625 3.65625 15.164062 5.460938 15.164062 8.191406 C 15.214844 9.167969 16.433594 10.335938 17.40625 10.09375 C 20.332031 9.507812 23.113281 8.242188 25.550781 6.484375 C 27.550781 5.023438 29.746094 3.070312 27.746094 0.683594 C 27.597656 0.488281 27.402344 0.292969 27.257812 0.144531 C 27.402344 0.046875 27.597656 -0.0976562 27.746094 -0.195312 C 31.304688 -2.488281 35.9375 -5.167969 40.324219 -4.582031 C 41.105469 -4.484375 41.007812 -5.460938 40.765625 -5.851562 Z M 25.601562 2.242188 C 23.699219 4.097656 21.503906 5.558594 19.066406 6.535156 C 19.945312 5.511719 21.113281 4.679688 21.992188 3.949219 C 23.160156 3.023438 24.332031 2.144531 25.550781 1.269531 C 26.332031 1.558594 26.136719 1.65625 25.601562 2.242188 Z M 25.601562 2.242188 "/></g></g></g><g fill="#9d2933" fill-opacity="1"><g transform="translate(170.132427, 192.568776)"><g><path d="M 24.234375 -18.675781 C 19.652344 -21.066406 13.945312 -21.113281 8.777344 -21.066406 C 9.507812 -22.675781 10.289062 -24.28125 11.070312 -25.84375 C 11.554688 -26.867188 9.117188 -28.964844 8.535156 -27.695312 C 7.460938 -25.503906 6.386719 -23.257812 5.363281 -21.015625 C -0.292969 -20.820312 -5.996094 -20.1875 -11.605469 -19.113281 C -12.777344 -18.871094 -10.921875 -16.382812 -9.753906 -16.578125 C -5.121094 -17.503906 -0.488281 -18.042969 4.195312 -18.285156 C 0.242188 -9.3125 -2.875 0.046875 -2.730469 9.996094 C -2.683594 11.117188 -0.0976562 12.871094 -0.144531 11.3125 C -0.292969 0.828125 3.265625 -9.019531 7.558594 -18.433594 C 7.605469 -18.433594 7.65625 -18.433594 7.703125 -18.433594 C 10.484375 -18.480469 13.261719 -18.433594 16.042969 -18.238281 C 18.871094 -18.042969 21.746094 -17.796875 24.28125 -16.433594 C 24.820312 -16.140625 25.453125 -16.1875 25.550781 -16.921875 C 25.601562 -17.601562 24.769531 -18.382812 24.234375 -18.675781 Z M 24.234375 -18.675781 "/></g></g></g><g fill="#9d2933" fill-opacity="1"><g transform="translate(176.860865, 192.568776)"><g><path d="M 17.117188 -6.191406 C 15.554688 -4.535156 12.238281 -1.707031 10.238281 -1.269531 C 10.238281 -1.414062 10.289062 -1.558594 10.289062 -1.707031 C 10.628906 -3.121094 11.070312 -4.582031 11.507812 -5.996094 C 11.800781 -6.925781 10.042969 -8.875 9.117188 -8.046875 C 6.875 -5.996094 4.777344 -3.902344 2.390625 -2.046875 C 1.65625 -1.511719 0.925781 -0.925781 0.0976562 -0.488281 C 0.242188 -0.925781 0.390625 -1.367188 0.585938 -1.753906 C 1.023438 -2.730469 1.511719 -3.707031 2.195312 -4.535156 C 3.023438 -5.511719 0.730469 -7.703125 -0.046875 -6.777344 C -1.609375 -4.972656 -3.851562 -0.976562 -2.097656 1.316406 C -0.78125 3.023438 0.976562 2.632812 2.585938 1.65625 C 4.339844 0.585938 5.949219 -0.78125 7.507812 -2.195312 C 7.507812 -2.097656 7.507812 -2.046875 7.507812 -2 C 7.265625 -0.585938 7.65625 0.828125 8.972656 1.609375 C 10.191406 2.339844 11.363281 1.753906 12.433594 1.023438 C 14.726562 -0.535156 16.726562 -2.632812 18.625 -4.582031 C 19.503906 -5.460938 17.992188 -7.070312 17.117188 -6.191406 Z M 17.117188 -6.191406 "/></g></g></g><g fill="#9d2933" fill-opacity="1"><g transform="translate(194.169539, 192.568776)"><g><path d="M 19.308594 -27.84375 C 19.210938 -27.890625 19.113281 -27.890625 19.015625 -27.890625 C 18.96875 -27.890625 18.96875 -27.890625 18.96875 -27.890625 C 18.773438 -27.890625 18.578125 -27.792969 18.433594 -27.597656 C 18.382812 -27.597656 18.382812 -27.550781 18.382812 -27.5 C 14.96875 -20.773438 11.363281 -13.945312 6.632812 -7.996094 C 6.484375 -7.753906 6.289062 -7.558594 6.144531 -7.3125 C 4.730469 -8.628906 2.585938 -8.777344 0.878906 -7.507812 C -1.558594 -5.707031 -3.167969 -2.683594 -3.804688 0.195312 C -4 1.171875 -2.632812 2.78125 -1.609375 2.390625 C 1.949219 1.121094 4.777344 -1.121094 7.265625 -3.753906 C 6.4375 -1.65625 5.65625 0.390625 4.925781 2.535156 C 4.535156 3.65625 7.023438 5.609375 7.460938 4.386719 C 10.972656 -6.046875 15.945312 -15.894531 20.871094 -25.648438 C 20.917969 -25.746094 20.917969 -25.792969 20.96875 -25.890625 C 21.066406 -26.574219 20.089844 -27.597656 19.308594 -27.84375 Z M 0.144531 -1.753906 C 0.390625 -2.195312 0.683594 -2.632812 0.976562 -3.023438 C 1.511719 -3.707031 2.097656 -4.386719 2.730469 -4.925781 C 3.167969 -5.265625 3.65625 -5.65625 4.195312 -5.800781 C 4.386719 -5.800781 4.535156 -5.851562 4.730469 -5.898438 C 4.777344 -5.851562 4.828125 -5.851562 4.875 -5.851562 C 3.460938 -4.289062 1.949219 -2.828125 0.144531 -1.753906 Z M 0.144531 -1.753906 "/></g></g></g><g fill="#9d2933" fill-opacity="1"><g transform="translate(209.869245, 192.568776)"><g><path d="M 20.675781 -6.289062 C 18.1875 -4.925781 15.214844 -3.558594 12.871094 -1.609375 C 13.652344 -3.707031 14.382812 -5.800781 15.019531 -7.898438 C 15.261719 -8.824219 13.507812 -10.875 12.628906 -9.949219 C 10.726562 -8.09375 8.777344 -6.339844 6.632812 -4.777344 C 5.511719 -4 4.386719 -3.21875 3.21875 -2.535156 C 2.535156 -2.097656 1.609375 -1.558594 0.730469 -1.367188 C 1.121094 -2.972656 1.851562 -4.386719 2.875 -5.707031 C 3.65625 -6.679688 1.367188 -8.875 0.585938 -7.949219 C -1.023438 -5.949219 -1.949219 -3.609375 -2.144531 -1.023438 C -2.242188 -0.339844 -1.414062 0.488281 -0.828125 0.730469 C 2.144531 2.046875 4.777344 0.242188 7.214844 -1.367188 C 8.339844 -2.097656 9.410156 -2.925781 10.484375 -3.753906 C 9.558594 -1.367188 8.582031 1.023438 7.460938 3.363281 C 6.972656 3.804688 6.535156 4.242188 6.09375 4.730469 C 4.195312 6.632812 2.390625 8.582031 0.78125 10.679688 C -1.023438 13.117188 -2.632812 15.894531 -1.753906 19.015625 C -1.609375 19.601562 -0.046875 21.359375 0.632812 20.480469 C 4.195312 15.796875 7.265625 10.777344 9.800781 5.511719 C 13.554688 1.851562 17.554688 -1.707031 22.039062 -4.339844 C 23.257812 -5.070312 21.699219 -6.828125 20.675781 -6.289062 Z M 20.675781 -6.289062 "/></g></g></g><g fill="#9d2933" fill-opacity="1"><g transform="translate(230.9322, 192.568776)"><g><path d="M 18.1875 -6.4375 C 15.066406 -5.121094 11.847656 -3.949219 8.09375 -1.804688 C 7.996094 -1.902344 7.898438 -1.949219 7.851562 -2 C 9.703125 -4 11.070312 -6.632812 8.875 -8.582031 C 6.4375 -10.726562 1.949219 -8.386719 -0.339844 -6.925781 C -1.269531 -6.339844 0.828125 -4 1.949219 -4.679688 C 3.070312 -5.414062 5.316406 -6.632812 7.167969 -6.828125 C 7.121094 -6.632812 7.070312 -6.4375 7.023438 -6.339844 C 6.730469 -5.707031 6.386719 -5.167969 5.949219 -4.679688 C 5.167969 -3.65625 4.195312 -2.875 3.121094 -2.242188 C 1.902344 -1.558594 3.707031 0 4.386719 0.242188 C 4.730469 0.390625 5.121094 0.4375 5.460938 0.4375 C 3.363281 2.535156 1.65625 4.972656 0.683594 7.851562 C 0 9.851562 -0.488281 12.289062 0.144531 14.335938 C 0.585938 15.652344 2.144531 17.457031 3.609375 16.480469 C 4.4375 15.945312 5.070312 14.871094 5.609375 14.09375 C 6.242188 13.261719 6.828125 12.335938 7.3125 11.410156 C 8.386719 9.507812 9.265625 7.410156 9.65625 5.265625 C 9.949219 3.902344 10.042969 2.339844 9.753906 0.976562 C 12.53125 -1.316406 15.796875 -3.070312 19.113281 -4.4375 C 20.382812 -4.972656 19.261719 -6.925781 18.1875 -6.4375 Z M 6.632812 5.316406 C 6.144531 6.875 5.511719 8.386719 4.679688 9.800781 C 4.195312 10.628906 3.65625 11.457031 3.070312 12.238281 C 3.023438 12.335938 2.78125 12.679688 2.488281 13.066406 C 2.488281 12.289062 2.683594 11.507812 2.875 10.726562 C 3.167969 9.65625 3.558594 8.628906 4.046875 7.65625 C 4.828125 6.046875 5.949219 4.582031 7.167969 3.316406 C 7.070312 4 6.875 4.679688 6.632812 5.316406 Z M 6.632812 5.316406 "/></g></g></g><g fill="#9d2933" fill-opacity="1"><g transform="translate(249.411041, 192.568776)"><g><path d="M 25.84375 -20.917969 C 25.550781 -20.917969 25.355469 -20.820312 25.308594 -20.527344 C 23.453125 -16.773438 21.164062 -13.261719 18.433594 -10.042969 C 17.117188 -8.484375 15.699219 -7.023438 14.140625 -5.65625 C 13.457031 -5.023438 12.726562 -4.386719 11.996094 -3.804688 C 11.847656 -3.65625 11.410156 -3.265625 10.972656 -2.925781 C 11.167969 -3.511719 11.363281 -4.097656 11.554688 -4.679688 C 11.945312 -5.753906 12.386719 -6.777344 12.871094 -7.851562 C 13.847656 -10.140625 14.921875 -12.335938 15.796875 -14.628906 C 17.261719 -18.335938 19.554688 -24.136719 15.652344 -27.109375 C 12.289062 -29.695312 7.167969 -25.792969 4.777344 -23.355469 C 3.511719 -21.992188 1.902344 -20.136719 1.460938 -18.285156 C 1.121094 -16.726562 2.097656 -14.96875 3.753906 -14.628906 C 5.023438 -14.335938 4.679688 -15.554688 4 -16.382812 C 4 -16.433594 4 -16.433594 4 -16.480469 C 4.046875 -16.578125 4.097656 -16.773438 4.144531 -16.921875 C 4.289062 -17.359375 4.582031 -17.796875 4.828125 -18.1875 C 5.460938 -19.210938 6.191406 -20.1875 7.070312 -21.066406 C 8.628906 -22.722656 10.484375 -23.992188 12.582031 -24.867188 C 13.066406 -25.0625 13.652344 -25.308594 14.191406 -25.355469 C 15.066406 -25.503906 15.164062 -25.113281 15.261719 -24.332031 C 15.359375 -22.964844 14.921875 -21.503906 14.578125 -20.1875 C 13.898438 -17.796875 12.921875 -15.554688 11.945312 -13.3125 C 10.921875 -11.070312 9.898438 -8.824219 9.019531 -6.484375 C 8.386719 -4.730469 7.167969 -2.292969 8.535156 -0.585938 C 10.09375 1.414062 11.898438 0.339844 13.507812 -0.925781 C 15.410156 -2.390625 17.164062 -4 18.773438 -5.707031 C 19.796875 -6.777344 20.773438 -7.851562 21.699219 -9.019531 C 21.015625 -7.363281 20.234375 -5.753906 19.457031 -4.144531 C 18.089844 -1.316406 16.480469 1.558594 14.382812 4 C 13.605469 4.875 12.777344 5.753906 11.75 6.339844 C 11.265625 6.632812 10.777344 6.777344 10.289062 6.925781 C 10.140625 6.972656 10.042969 6.972656 9.949219 6.972656 C 9.703125 6.4375 10.335938 5.070312 10.484375 4.632812 C 10.824219 3.511719 8.386719 1.558594 7.949219 2.78125 C 7.3125 4.777344 7.121094 6.777344 8.679688 8.386719 C 9.65625 9.410156 10.875 9.753906 12.238281 9.410156 C 14.335938 8.875 16.042969 7.070312 17.359375 5.414062 C 21.164062 0.535156 23.648438 -5.460938 25.695312 -11.265625 C 26.574219 -13.652344 27.402344 -16.140625 27.84375 -18.675781 C 28.234375 -19.503906 26.769531 -21.015625 25.84375 -20.917969 Z M 25.84375 -20.917969 "/></g></g></g><g fill="#9d2933" fill-opacity="1"><g transform="translate(278.762661, 192.568776)"><g><path d="M 18.285156 -6.191406 C 16.433594 -4.535156 11.265625 -0.683594 8.339844 -0.339844 C 8.289062 -0.339844 8.289062 -0.339844 8.242188 -0.339844 C 8.386719 -1.074219 8.484375 -1.753906 8.777344 -2.535156 C 9.019531 -3.265625 9.3125 -4 9.410156 -4.777344 C 9.460938 -4.875 9.460938 -5.023438 9.410156 -5.21875 C 9.410156 -5.707031 8.875 -6.339844 8.289062 -6.730469 C 7.949219 -6.972656 7.558594 -7.121094 7.214844 -7.023438 C 6.925781 -6.972656 6.679688 -6.875 6.386719 -6.777344 C 5.023438 -8.582031 2.535156 -8.921875 0.585938 -7.507812 C -1.804688 -5.707031 -3.414062 -2.683594 -4.046875 0.195312 C -4.242188 1.171875 -2.875 2.78125 -1.851562 2.390625 C 1.074219 1.21875 3.265625 -1.316406 5.851562 -3.023438 C 5.609375 -2.195312 5.460938 -1.367188 5.753906 -0.4375 C 6.144531 0.925781 7.363281 2.097656 8.824219 2.292969 C 10.289062 2.4375 11.703125 1.65625 12.871094 0.976562 C 15.457031 -0.585938 17.75 -2.585938 19.992188 -4.582031 C 20.871094 -5.414062 19.210938 -7.070312 18.285156 -6.191406 Z M 0.683594 -2.972656 C 0.683594 -2.972656 0.730469 -3.023438 0.730469 -3.023438 C 1.269531 -3.707031 1.851562 -4.386719 2.488281 -4.925781 C 2.925781 -5.265625 3.363281 -5.65625 3.902344 -5.800781 C 4.097656 -5.800781 4.289062 -5.851562 4.484375 -5.898438 C 4.484375 -5.851562 4.484375 -5.851562 4.535156 -5.851562 C 3.167969 -5.070312 1.949219 -4 0.683594 -2.972656 Z M 0.683594 -2.972656 "/></g></g></g><g fill="#9d2933" fill-opacity="1"><g transform="translate(297.339022, 192.568776)"><g><path d="M 19.457031 -6.289062 C 16.140625 -4.730469 12.433594 -3.167969 9.070312 -1.511719 C 9.753906 -2.925781 10.484375 -4.339844 11.3125 -5.707031 C 11.945312 -6.730469 10.335938 -8.4375 9.265625 -8.09375 C 6.730469 -7.3125 4.339844 -6.09375 2.144531 -4.632812 C 2.144531 -4.679688 2.195312 -4.730469 2.242188 -4.777344 C 2.78125 -5.753906 0.390625 -7.851562 -0.292969 -6.632812 C -1.558594 -4.386719 -2.730469 -2 -3.363281 0.488281 C -3.609375 1.367188 -1.804688 3.511719 -0.976562 2.535156 C 1.074219 0.046875 3.558594 -2 6.339844 -3.511719 C 5.851562 -2.585938 5.460938 -1.609375 5.316406 -0.632812 C 5.070312 1.023438 6.632812 2.632812 8.339844 2.242188 C 10.042969 1.851562 11.703125 0.535156 13.164062 -0.339844 C 15.507812 -1.851562 17.894531 -3.316406 20.429688 -4.484375 C 21.648438 -5.070312 20.527344 -6.777344 19.457031 -6.289062 Z M 19.457031 -6.289062 "/></g></g></g><g fill="#9d2933" fill-opacity="1"><g transform="translate(316.988029, 192.568776)"><g><path d="M 16.726562 -6.632812 C 14.238281 -5.558594 11.800781 -4.535156 9.019531 -2.972656 C 9.167969 -3.460938 9.363281 -3.949219 9.507812 -4.484375 C 9.851562 -5.511719 8.339844 -6.925781 7.3125 -6.679688 C 7.214844 -6.632812 7.121094 -6.582031 6.972656 -6.582031 C 5.65625 -8.535156 3.070312 -8.972656 1.074219 -7.507812 C -1.367188 -5.707031 -2.925781 -2.683594 -3.609375 0.195312 C -3.804688 1.171875 -2.4375 2.78125 -1.414062 2.390625 C 1.316406 1.316406 3.363281 -0.925781 5.753906 -2.535156 C 5.414062 -1.511719 5.070312 -0.4375 4.730469 0.585938 C 3.460938 1.753906 2.292969 3.023438 1.269531 4.386719 C -2.046875 8.628906 -4.925781 14.382812 -2.925781 19.75 C -2.683594 20.382812 -1.023438 22.332031 -0.390625 21.066406 C 2.4375 15.066406 4.925781 8.921875 7.121094 2.683594 C 10.289062 -0.292969 13.945312 -2.632812 17.945312 -4.386719 C 19.164062 -4.972656 17.75 -7.121094 16.726562 -6.632812 Z M 1.074219 -2.875 C 1.121094 -2.925781 1.171875 -2.972656 1.171875 -3.023438 C 1.707031 -3.707031 2.292969 -4.386719 2.925781 -4.925781 C 3.363281 -5.265625 3.851562 -5.65625 4.386719 -5.800781 C 4.582031 -5.800781 4.730469 -5.851562 4.925781 -5.898438 C 5.023438 -5.851562 5.121094 -5.851562 5.21875 -5.800781 C 3.707031 -5.023438 2.390625 -3.949219 1.074219 -2.875 Z M -0.292969 13.410156 C -0.046875 12.582031 0.292969 11.800781 0.683594 11.070312 C 0.339844 11.847656 0.046875 12.628906 -0.292969 13.410156 Z M -0.292969 13.410156 "/></g></g></g><g clip-path="url(#5cdc846e7b)"><path fill="#9d2933" d="M 64.15625 196.015625 C 64.15625 183.0625 72.953125 172.160156 84.890625 168.949219 C 87.214844 168.328125 89.65625 167.992188 92.179688 167.992188 C 94.699219 167.992188 97.144531 168.320312 99.46875 168.949219 L 100.144531 169.144531 C 104.144531 170.324219 107.765625 172.550781 110.71875 175.488281 L 111.976562 176.738281 L 110.40625 173.109375 L 108.953125 169.664062 L 108.65625 168.949219 L 107.925781 167.222656 L 107.871094 167.101562 L 104.050781 158.023438 C 104.050781 158.023438 102.878906 155.230469 99.984375 155.230469 C 97.335938 155.230469 92.824219 155.230469 92.824219 155.230469 C 92.824219 155.230469 86.6875 155.230469 84.03125 155.230469 C 81.140625 155.230469 79.964844 158.023438 79.964844 158.023438 L 75.367188 168.957031 L 58.945312 168.957031 C 54.636719 168.957031 51.128906 172.464844 51.128906 176.785156 L 51.128906 213.757812 C 51.128906 218.082031 54.636719 221.589844 58.960938 221.589844 L 80.710938 221.589844 C 70.949219 217.210938 64.15625 207.410156 64.15625 196.015625 Z M 64.15625 196.015625 " fill-opacity="1" fill-rule="nonzero"/></g><path fill="#9d2933" d="M 62.882812 166.234375 L 70.78125 166.234375 C 71.9375 166.234375 72.882812 165.289062 72.882812 164.132812 L 72.882812 163.328125 C 72.882812 162.167969 71.9375 161.222656 70.78125 161.222656 L 62.882812 161.222656 C 61.726562 161.222656 60.78125 162.167969 60.78125 163.328125 L 60.78125 164.132812 C 60.78125 165.296875 61.726562 166.234375 62.882812 166.234375 Z M 62.882812 166.234375 " fill-opacity="1" fill-rule="nonzero"/><path fill="#9d2933" d="M 92.171875 171.390625 C 78.597656 171.390625 67.550781 182.441406 67.550781 196.015625 C 67.550781 209.589844 78.597656 220.640625 92.171875 220.640625 C 105.746094 220.640625 116.796875 209.589844 116.796875 196.015625 C 116.796875 182.441406 105.746094 171.390625 92.171875 171.390625 Z M 92.171875 218.914062 C 79.550781 218.914062 69.277344 208.636719 69.277344 196.015625 C 69.277344 183.390625 79.550781 173.117188 92.171875 173.117188 C 104.796875 173.117188 115.070312 183.390625 115.070312 196.015625 C 115.070312 208.644531 104.796875 218.914062 92.171875 218.914062 Z M 92.171875 218.914062 " fill-opacity="1" fill-rule="nonzero"/><path fill="#9d2933" d="M 92.171875 176.410156 L 90.246094 176.464844 C 89.609375 176.53125 88.972656 176.625 88.328125 176.707031 C 87.699219 176.832031 87.078125 177.007812 86.449219 177.152344 C 85.835938 177.339844 85.230469 177.574219 84.613281 177.78125 C 82.214844 178.742188 80.027344 180.214844 78.183594 182.035156 C 76.367188 183.875 74.898438 186.0625 73.933594 188.464844 C 73.726562 189.078125 73.488281 189.675781 73.304688 190.296875 C 73.160156 190.925781 72.980469 191.550781 72.859375 192.179688 C 72.773438 192.816406 72.683594 193.453125 72.613281 194.097656 L 72.558594 196.023438 C 72.636719 193.460938 73.171875 190.914062 74.179688 188.570312 C 75.175781 186.230469 76.617188 184.074219 78.429688 182.28125 C 80.21875 180.46875 82.375 179.035156 84.722656 178.027344 C 87.0625 177.023438 89.609375 176.484375 92.171875 176.410156 Z M 92.171875 176.410156 " fill-opacity="1" fill-rule="nonzero"/><path fill="#9d2933" d="M 109.453125 186.015625 C 110.257812 188.1875 110.695312 190.535156 110.695312 192.976562 C 110.695312 204.28125 101.304688 213.449219 89.71875 213.449219 C 86.289062 213.449219 83.050781 212.644531 80.1875 211.222656 C 83.523438 213.824219 87.714844 215.367188 92.273438 215.367188 C 103.152344 215.367188 111.96875 206.542969 111.96875 195.667969 C 111.96875 192.164062 111.058594 188.871094 109.453125 186.015625 Z M 109.453125 186.015625 " fill-opacity="1" fill-rule="nonzero"/><g clip-path="url(#db0ad54241)"><path fill="#9d2933" d="M 121.722656 155.230469 C 122.199219 160.761719 122.453125 166.289062 122.621094 171.820312 C 122.730469 174.582031 122.75 177.351562 122.8125 180.117188 L 122.875 188.410156 L 122.8125 196.707031 C 122.75 199.46875 122.730469 202.238281 122.621094 205 C 122.453125 210.53125 122.199219 216.058594 121.722656 221.589844 C 121.246094 216.058594 120.996094 210.53125 120.824219 205 C 120.71875 202.238281 120.695312 199.46875 120.632812 196.707031 L 120.574219 188.410156 L 120.632812 180.117188 C 120.695312 177.351562 120.71875 174.582031 120.824219 171.820312 C 121.003906 166.289062 121.246094 160.761719 121.722656 155.230469 Z M 121.722656 155.230469 " fill-opacity="1" fill-rule="nonzero"/></g></svg>